Coordinates
version=1
nRows=24
nColumns=38
inDegrees=no

Units are S.I. units (second, meters, Newtons, ...)
If the header above contains a line with 'inDegrees', this indicates whether rotational values are in degrees (yes) or radians (no).

endheader
time	pelvis_tilt	pelvis_list	pelvis_rotation	pelvis_tx	pelvis_ty	pelvis_tz	hip_flexion_r	hip_adduction_r	hip_rotation_r	knee_angle_r	ankle_angle_r	subtalar_angle_r	mtp_angle_r	hip_flexion_l	hip_adduction_l	hip_rotation_l	knee_angle_l	ankle_angle_l	subtalar_angle_l	mtp_angle_l	lumbar_extension	lumbar_bending	lumbar_rotation	arm_flex_r	arm_add_r	arm_rot_r	elbow_flex_r	pro_sup_r	wrist_flex_r	wrist_dev_r	arm_flex_l	arm_add_l	arm_rot_l	elbow_flex_l	pro_sup_l	wrist_flex_l	wrist_dev_l
5	-2.66866	1.40605	-2.10185	0.686014	0.529472	0.926312	0.0348884	-0.324038	-0.194678	1.19677	-0.198791	0	0	0.0503141	0.129782	-0.300739	0.282624	0.0713675	0	0	-0.365651	-0.116576	0.0860733	0.596912	-0.382091	0.22244	1.55868	1.5708	0	0	0.636676	-0.165214	0.0434387	1.47884	0.964868	0	0
5.01	-2.70124	1.4078	-2.06254	0.684434	0.536209	0.927396	0.0578004	-0.318779	-0.190133	1.22068	-0.17448	0	0	0.0416242	0.124244	-0.308674	0.28425	0.0790421	0	0	-0.368188	-0.108321	0.0779707	0.598289	-0.380475	0.223957	1.55387	1.5708	0	0	0.633133	-0.161916	0.0360177	1.48014	0.964233	0	0
5.02	-2.71606	1.40664	-2.04116	0.68265	0.542899	0.928951	0.0782355	-0.318398	-0.186754	1.23836	-0.15488	0	0	0.0149522	0.132288	-0.284563	0.251879	0.0701375	0	0	-0.371493	-0.103257	0.0708962	0.598107	-0.380092	0.224408	1.54938	1.5708	0	0	0.634361	-0.165603	0.0439875	1.47544	0.961047	0	0
5.03	-2.74433	1.40986	-2.00533	0.681124	0.549341	0.929967	0.101318	-0.311918	-0.184526	1.25213	-0.137818	0	0	0.00596638	0.127606	-0.280951	0.249308	0.0731272	0	0	-0.37195	-0.0944863	0.0633287	0.599022	-0.379418	0.22573	1.5442	1.5708	0	0	0.633546	-0.165609	0.0446787	1.47336	0.960027	0	0
5.04	-2.77005	1.41233	-1.97238	0.679716	0.555744	0.931085	0.123284	-0.305695	-0.182337	1.26144	-0.123418	0	0	-0.00654232	0.125176	-0.270806	0.240388	0.0714339	0	0	-0.372766	-0.0868318	0.056004	0.599994	-0.378422	0.22658	1.53862	1.5708	0	0	0.63314	-0.165247	0.0451085	1.47108	0.960031	0	0
5.05	-2.80044	1.41443	-1.93441	0.678354	0.562157	0.932178	0.143802	-0.298725	-0.181274	1.2667	-0.110544	0	0	-0.0180741	0.121408	-0.266106	0.233878	0.0717427	0	0	-0.373781	-0.0786468	0.048508	0.601249	-0.37706	0.227478	1.53332	1.5708	0	0	0.633106	-0.164847	0.0452369	1.46896	0.960593	0	0
5.06	-2.82867	1.41387	-1.89924	0.67698	0.568641	0.933519	0.160575	-0.293451	-0.181085	1.26711	-0.0976273	0	0	-0.0438354	0.124505	-0.242482	0.203323	0.0617749	0	0	-0.376868	-0.071749	0.0410597	0.603518	-0.375777	0.228995	1.52732	1.5708	0	0	0.633136	-0.164295	0.0452001	1.46644	0.963137	0	0
5.07	-2.86597	1.41642	-1.85402	0.675619	0.574896	0.934348	0.179682	-0.285265	-0.182737	1.26464	-0.083083	0	0	-0.0512159	0.117271	-0.244605	0.203624	0.0668053	0	0	-0.37717	-0.0621758	0.033585	0.606446	-0.375178	0.230915	1.52165	1.5708	0	0	0.633609	-0.16357	0.0451682	1.4635	0.963846	0	0
5.08	-2.90107	1.41568	-1.81213	0.674396	0.581228	0.935556	0.194542	-0.278453	-0.184534	1.25749	-0.0668459	0	0	-0.0742018	0.117066	-0.225663	0.178777	0.059744	0	0	-0.380407	-0.0543466	0.0266285	0.609877	-0.374366	0.23309	1.5154	1.5708	0	0	0.634586	-0.163061	0.0450435	1.4603	0.965487	0	0
5.09	-2.93731	1.4175	-1.76835	0.673078	0.587345	0.936331	0.212279	-0.270869	-0.187148	1.24849	-0.0522019	0	0	-0.0820308	0.110106	-0.227853	0.17792	0.0638983	0	0	-0.381134	-0.0453482	0.0196161	0.613207	-0.373969	0.234922	1.51039	1.5708	0	0	0.636006	-0.162349	0.045659	1.45742	0.965908	0	0
5.1	-2.97666	1.41723	-1.72246	0.671895	0.593474	0.937336	0.226742	-0.26256	-0.189563	1.23532	-0.0386931	0	0	-0.100235	0.106619	-0.21594	0.160335	0.059664	0	0	-0.383955	-0.0366284	0.0136654	0.616899	-0.374	0.237118	1.50521	1.5708	0	0	0.637969	-0.161562	0.0465331	1.45359	0.967407	0	0
5.11	-3.01538	1.41614	-1.6776	0.670772	0.599541	0.938323	0.239594	-0.253817	-0.191848	1.21883	-0.0267243	0	0	-0.119829	0.103277	-0.202691	0.141246	0.0546179	0	0	-0.387559	-0.0282314	0.00838395	0.620378	-0.374522	0.238715	1.50051	1.5708	0	0	0.640312	-0.160677	0.0474584	1.44978	0.968669	0	0
5.12	-3.05375	1.41603	-1.63308	0.669738	0.605463	0.939015	0.253248	-0.244741	-0.194587	1.19993	-0.0163883	0	0	-0.130257	0.0967008	-0.202651	0.137083	0.0577468	0	0	-0.390036	-0.0198679	0.00348205	0.623639	-0.375283	0.240154	1.49671	1.5708	0	0	0.643098	-0.160257	0.0491994	1.44639	0.969067	0	0
5.13	-3.08865	1.41571	-1.59329	0.668828	0.61126	0.939648	0.264816	-0.233685	-0.185918	1.17586	-0.00383113	0	0	-0.144568	0.0921126	-0.195837	0.124984	0.057269	0	0	-0.392707	-0.0124362	-0.000185342	0.627282	-0.376379	0.241553	1.49329	1.5708	0	0	0.646261	-0.159746	0.0507395	1.44341	0.969564	0	0
5.14	-3.1196	1.41393	-1.55723	0.667841	0.617207	0.940276	0.2748	-0.226165	-0.188913	1.15103	0.00401865	0	0	-0.162168	0.0884868	-0.186798	0.109202	0.0555145	0	0	-0.39639	-0.00536054	-0.00421293	0.63107	-0.377898	0.243789	1.4908	1.5708	0	0	0.649181	-0.159451	0.0520394	1.44146	0.970585	0	0
5.15	3.13543	1.41234	-1.524	0.666862	0.62317	0.940749	0.284016	-0.219533	-0.194184	1.12425	0.0124576	0	0	-0.180788	0.0854337	-0.175865	0.0904034	0.0535627	0	0	-0.399609	0.00135218	-0.00811456	0.634304	-0.379356	0.245288	1.4892	1.5708	0	0	0.651688	-0.159187	0.0531201	1.4404	0.971591	0	0
5.16	3.10539	1.40987	-1.48926	0.666099	0.629162	0.941229	0.291048	-0.21215	-0.201243	1.09491	0.0213339	0	0	-0.199965	0.0817949	-0.165912	0.0724284	0.0513606	0	0	-0.403453	0.00804785	-0.011401	0.636888	-0.380208	0.246201	1.48768	1.5708	0	0	0.654064	-0.159538	0.0551585	1.43926	0.972365	0	0
5.17	3.09008	1.41032	-1.46866	0.665017	0.634953	0.941257	0.301666	-0.209025	-0.209111	1.06617	0.0313978	0	0	-0.207751	0.0778099	-0.16752	0.0707998	0.0566575	0	0	-0.404541	0.0128084	-0.0161242	0.639558	-0.381259	0.247197	1.48644	1.5708	0	0	0.65615	-0.159951	0.0571283	1.43826	0.972271	0	0
5.18	3.06711	1.40757	-1.44215	0.66439	0.640949	0.941605	0.306616	-0.202063	-0.216309	1.03318	0.038755	0	0	-0.229953	0.0758898	-0.153332	0.047948	0.0497618	0	0	-0.408676	0.0181497	-0.0185611	0.642055	-0.381865	0.247185	1.48524	1.5708	0	0	0.658729	-0.160842	0.0591861	1.43759	0.970728	0	0
5.19	3.05152	1.40488	-1.42099	0.663389	0.646998	0.941792	0.312005	-0.201153	-0.244197	1.00128	0.0408092	0	0	-0.246189	0.0727066	-0.147577	0.0368307	0.0501163	0	0	-0.412534	0.0234838	-0.0229881	0.644675	-0.382826	0.247011	1.48515	1.5708	0	0	0.661599	-0.160704	0.0596648	1.4373	0.969037	0	0
5.2	3.03868	1.40344	-1.40428	0.662524	0.652918	0.941757	0.31692	-0.197644	-0.254711	0.966263	0.046086	0	0	-0.265648	0.0710328	-0.134231	0.0169819	0.0456969	0	0	-0.415371	0.0278085	-0.0258125	0.647875	-0.384082	0.246989	1.48553	1.5708	0	0	0.665196	-0.159659	0.0596444	1.43662	0.967517	0	0
5.21	3.02238	1.40308	-1.38463	0.661946	0.658793	0.941556	0.322291	-0.192558	-0.26488	0.929666	0.0507875	0	0	-0.274618	0.0674623	-0.137698	0.0144367	0.0508955	0	0	-0.417042	0.0319923	-0.0278324	0.650732	-0.384781	0.246084	1.48555	1.5708	0	0	0.668913	-0.158874	0.0609937	1.43592	0.967434	0	0
5.22	3.0071	1.40229	-1.36652	0.661313	0.664744	0.941314	0.325661	-0.18738	-0.275791	0.890752	0.0546711	0	0	-0.293169	0.0654016	-0.125726	0	0.0472659	0	0	-0.418946	0.0361614	-0.0291804	0.653446	-0.38605	0.245214	1.48519	1.5708	0	0	0.672231	-0.157574	0.0626288	1.4349	0.967607	0	0
5.23	2.9959	1.40254	-1.35201	0.660548	0.670614	0.94092	0.329203	-0.183291	-0.287561	0.850859	0.0571841	0	0	-0.306546	0.0627432	-0.118682	0	0.047883	0	0	-0.42001	0.0398092	-0.0309529	0.65587	-0.387609	0.243881	1.48535	1.5708	0	0	0.675587	-0.155749	0.0635968	1.43349	0.967688	0	0
